<svg width="24" height="24" viewBox="0 0 24 24" fill="none" xmlns="http://www.w3.org/2000/svg">
<path d="M12 22C17.5242 22 22 17.5242 22 12C22 6.47581 17.5242 2 12 2C6.47581 2 2 6.47581 2 12C2 17.5242 6.47581 22 12 22ZM12 3.93548C16.4556 3.93548 20.0645 7.54435 20.0645 12C20.0645 16.4556 16.4556 20.0645 12 20.0645C7.54435 20.0645 3.93548 16.4556 3.93548 12C3.93548 7.54435 7.54435 3.93548 12 3.93548ZM12.8065 17.1613H11.1935C10.9274 17.1613 10.7097 16.9435 10.7097 16.6774V12H8.00806C7.57661 12 7.3629 11.4798 7.66532 11.1734L11.6573 7.18145C11.8468 6.99194 12.1532 6.99194 12.3427 7.18145L16.3347 11.1734C16.6411 11.4798 16.4234 12 15.9919 12H13.2903V16.6774C13.2903 16.9435 13.0726 17.1613 12.8065 17.1613Z" fill="white"/>
</svg>
