<svg width="24" height="24" viewBox="0 0 24 24" fill="none" xmlns="http://www.w3.org/2000/svg">
<path d="M22 12C22 17.5229 17.5229 22 12 22C6.47714 22 2 17.5229 2 12C2 6.47714 6.47714 2 12 2C17.5229 2 22 6.47714 22 12ZM16.2883 10.5754C16.4873 9.2448 15.4741 8.52948 14.0887 8.0523L14.5381 6.2498L13.4408 5.97637L13.0033 7.73137C12.7148 7.65948 12.4185 7.59169 12.1241 7.52452L12.5648 5.75798L11.4681 5.48456L11.0184 7.28641C10.7796 7.23202 10.5452 7.17827 10.3177 7.12173L10.319 7.11609L8.80564 6.73827L8.51375 7.91012C8.51375 7.91012 9.3279 8.09669 9.31073 8.10823C9.75516 8.21915 9.83548 8.51323 9.82202 8.74633L9.31008 10.7998C9.34073 10.8076 9.3804 10.8188 9.42415 10.8363C9.38758 10.8273 9.34851 10.8173 9.30819 10.8076L8.5906 13.6841C8.53621 13.8191 8.39839 14.0216 8.08774 13.9448C8.09867 13.9607 7.29016 13.7457 7.29016 13.7457L6.7454 15.0016L8.17339 15.3575C8.43903 15.4241 8.6994 15.4938 8.95565 15.5594L8.50153 17.3825L9.59758 17.6559L10.0473 15.8522C10.338 15.931 10.6295 16.0066 10.9218 16.0791L10.4736 17.8744L11.5709 18.1478L12.025 16.3281C13.8961 16.6822 15.3032 16.5394 15.8954 14.8472C16.3727 13.4847 15.8717 12.6987 14.8872 12.1862C15.6041 12.021 16.1442 11.5495 16.2883 10.5754ZM13.7811 14.0907C13.442 15.4532 11.1477 14.7166 10.4039 14.5319L11.0065 12.1167C11.7503 12.3023 14.1355 12.6698 13.7811 14.0907ZM14.1205 10.5557C13.8111 11.7951 11.9015 11.1654 11.2821 11.011L11.8284 8.82044C12.4479 8.9748 14.4427 9.2629 14.1205 10.5557Z" fill="white"/>
</svg>
