<svg width="32" height="32" viewBox="0 0 32 32" fill="none" xmlns="http://www.w3.org/2000/svg">
<path d="M15.6464 11.0113L7.11142 18.0408V25.6277C7.11142 25.8242 7.18946 26.0126 7.32836 26.1515C7.46727 26.2904 7.65566 26.3684 7.85211 26.3684L13.0397 26.355C13.2355 26.354 13.4229 26.2755 13.561 26.1367C13.6991 25.9979 13.7767 25.8101 13.7766 25.6143V21.1836C13.7766 20.9872 13.8547 20.7988 13.9936 20.6599C14.1325 20.521 14.3209 20.443 14.5173 20.443H17.4801C17.6765 20.443 17.8649 20.521 18.0038 20.6599C18.1427 20.7988 18.2208 20.9872 18.2208 21.1836V25.6111C18.2204 25.7085 18.2394 25.8051 18.2765 25.8952C18.3136 25.9854 18.3681 26.0673 18.4369 26.1363C18.5057 26.2053 18.5874 26.2601 18.6775 26.2975C18.7675 26.3348 18.864 26.3541 18.9614 26.3541L24.1471 26.3684C24.3436 26.3684 24.532 26.2904 24.6709 26.1515C24.8098 26.0126 24.8878 25.8242 24.8878 25.6277V18.0357L16.3547 11.0113C16.2544 10.9304 16.1294 10.8863 16.0006 10.8863C15.8717 10.8863 15.7467 10.9304 15.6464 11.0113ZM29.1282 15.7891L25.2582 12.5991V6.1871C25.2582 6.03977 25.1996 5.89848 25.0955 5.7943C24.9913 5.69012 24.85 5.63159 24.7027 5.63159H22.1103C21.9629 5.63159 21.8216 5.69012 21.7175 5.7943C21.6133 5.89848 21.5548 6.03977 21.5548 6.1871V9.54842L17.4102 6.1385C17.0124 5.8112 16.5133 5.63225 15.9982 5.63225C15.4831 5.63225 14.984 5.8112 14.5863 6.1385L2.86823 15.7891C2.81198 15.8356 2.76544 15.8928 2.73127 15.9572C2.6971 16.0217 2.67598 16.0923 2.6691 16.165C2.66222 16.2376 2.66973 16.3109 2.69118 16.3807C2.71264 16.4504 2.74764 16.5153 2.79416 16.5715L3.97463 18.0066C4.02103 18.063 4.0781 18.1097 4.14258 18.144C4.20705 18.1784 4.27767 18.1996 4.35038 18.2067C4.42309 18.2137 4.49647 18.2063 4.56632 18.1849C4.63617 18.1635 4.70111 18.1285 4.75744 18.082L15.6464 9.11327C15.7467 9.03241 15.8717 8.98831 16.0006 8.98831C16.1294 8.98831 16.2544 9.03241 16.3547 9.11327L27.2441 18.082C27.3004 18.1285 27.3652 18.1635 27.4349 18.185C27.5047 18.2065 27.578 18.214 27.6507 18.2071C27.7233 18.2002 27.7939 18.1791 27.8584 18.1449C27.9229 18.1107 27.98 18.0642 28.0265 18.008L29.2069 16.5729C29.2534 16.5163 29.2883 16.4512 29.3095 16.3811C29.3307 16.311 29.3378 16.2375 29.3305 16.1646C29.3232 16.0918 29.3016 16.0212 29.2669 15.9567C29.2321 15.8923 29.185 15.8353 29.1282 15.7891Z" fill="#F2FF53"/>
</svg>
