<svg width="32" height="32" viewBox="0 0 32 32" fill="none" xmlns="http://www.w3.org/2000/svg">
<path d="M29.3334 10.1667V25.1667C29.3334 26.5469 28.2136 27.6667 26.8334 27.6667H5.16675C3.78654 27.6667 2.66675 26.5469 2.66675 25.1667V10.1667C2.66675 8.78647 3.78654 7.66668 5.16675 7.66668H9.75008L10.3907 5.95314C10.7553 4.97918 11.6876 4.33334 12.7292 4.33334H19.2657C20.3074 4.33334 21.2397 4.97918 21.6042 5.95314L22.2501 7.66668H26.8334C28.2136 7.66668 29.3334 8.78647 29.3334 10.1667ZM22.2501 17.6667C22.2501 14.2188 19.448 11.4167 16.0001 11.4167C12.5522 11.4167 9.75008 14.2188 9.75008 17.6667C9.75008 21.1146 12.5522 23.9167 16.0001 23.9167C19.448 23.9167 22.2501 21.1146 22.2501 17.6667ZM20.5834 17.6667C20.5834 20.1927 18.5261 22.25 16.0001 22.25C13.474 22.25 11.4167 20.1927 11.4167 17.6667C11.4167 15.1406 13.474 13.0833 16.0001 13.0833C18.5261 13.0833 20.5834 15.1406 20.5834 17.6667Z" fill="white"/>
</svg>
