<svg width="16" height="16" viewBox="0 0 16 16" fill="none" xmlns="http://www.w3.org/2000/svg">
<path d="M8.99767 13.6273L8.33703 14.288C8.0573 14.5677 7.60497 14.5677 7.32821 14.288L1.54314 8.50588C1.26341 8.22615 1.26341 7.77382 1.54314 7.49706L7.32821 1.712C7.60794 1.43226 8.06027 1.43226 8.33703 1.712L8.99767 2.37264C9.28037 2.65534 9.27442 3.1166 8.98576 3.39336L5.39985 6.80964H13.9525C14.3483 6.80964 14.6667 7.12806 14.6667 7.52385V8.47612C14.6667 8.87191 14.3483 9.19033 13.9525 9.19033H5.39985L8.98576 12.6066C9.2774 12.8834 9.28335 13.3446 8.99767 13.6273Z" fill="white"/>
</svg>
