<svg width="24" height="24" viewBox="0 0 24 24" fill="none" xmlns="http://www.w3.org/2000/svg">
<path d="M8.44368 13.7574C8.28933 14.6042 7.67632 18.5513 7.4955 19.667C7.48227 19.7464 7.4514 19.7773 7.3632 19.7773H4.07323C3.73806 19.7773 3.4955 19.4862 3.5396 19.1643L6.12395 2.76296C6.1901 2.33959 6.56937 2.01765 7.00598 2.01765C13.7226 2.01765 14.2871 1.85448 16.0027 2.52041C18.6532 3.54797 18.8957 6.02647 17.9431 8.70783C16.9949 11.4686 14.7458 12.6549 11.7645 12.6902C9.85052 12.7211 8.69947 12.3815 8.44368 13.7574ZM19.2794 7.41125C19.2 7.35392 19.1691 7.33187 19.1471 7.46859C19.0589 7.97134 18.9222 8.46087 18.759 8.95039C16.9994 13.9691 12.1217 13.5325 9.74026 13.5325C9.47124 13.5325 9.29484 13.6781 9.25956 13.9471C8.26287 20.1389 8.06441 21.4311 8.06441 21.4311C8.02031 21.7442 8.21876 22 8.53188 22H11.3323C11.7116 22 12.0247 21.7222 12.0997 21.3429C12.1306 21.1047 12.0512 21.6119 12.7347 17.3164C12.9376 16.3462 13.3654 16.4476 14.0269 16.4476C17.1581 16.4476 19.6013 15.1775 20.329 11.495C20.6157 9.96032 20.5319 8.3462 19.2794 7.41125Z" fill="white"/>
</svg>
