<svg width="16" height="16" viewBox="0 0 16 16" fill="none" xmlns="http://www.w3.org/2000/svg">
<path d="M8.00004 5.66667C6.89546 5.66667 6.00004 6.71125 6.00004 8C6.00004 9.28854 6.89546 10.3333 8.00004 10.3333C9.10421 10.3333 10 9.28896 10 8C10 6.71125 9.10462 5.66667 8.00004 5.66667ZM8.83337 9.16667C8.83337 9.25875 8.75879 9.33333 8.66671 9.33333H7.33337C7.24129 9.33333 7.16671 9.25875 7.16671 9.16667V8.83333C7.16671 8.74125 7.24129 8.66667 7.33337 8.66667H7.66671V7.51167L7.65692 7.51813C7.63871 7.53027 7.61829 7.53871 7.59683 7.54296C7.57536 7.54721 7.55327 7.54719 7.53181 7.5429C7.51035 7.5386 7.48995 7.53012 7.47177 7.51793C7.45359 7.50574 7.438 7.49009 7.42587 7.47187L7.24087 7.19458C7.22873 7.17638 7.22028 7.15596 7.21603 7.13449C7.21178 7.11303 7.21181 7.09093 7.2161 7.06947C7.2204 7.04802 7.22888 7.02762 7.24107 7.00944C7.25325 6.99126 7.26891 6.97567 7.28712 6.96354L7.6065 6.75063C7.68861 6.69587 7.7851 6.66666 7.88379 6.66667H8.16671C8.25879 6.66667 8.33337 6.74125 8.33337 6.83333V8.66667H8.66671C8.75879 8.66667 8.83337 8.74125 8.83337 8.83333V9.16667ZM14 4H2.00004C1.63192 4 1.33337 4.29854 1.33337 4.66667V11.3333C1.33337 11.7015 1.63192 12 2.00004 12H14C14.3682 12 14.6667 11.7015 14.6667 11.3333V4.66667C14.6667 4.29854 14.3682 4 14 4ZM13.6667 9.66667C12.9302 9.66667 12.3334 10.2635 12.3334 11H3.66671C3.66671 10.2635 3.06983 9.66667 2.33337 9.66667V6.33333C3.06983 6.33333 3.66671 5.73646 3.66671 5H12.3334C12.3334 5.73646 12.9302 6.33333 13.6667 6.33333V9.66667Z" fill="white"/>
</svg>
